<svg xmlns="http://www.w3.org/2000/svg" viewBox="0 0 734.5 162.9">
    <path
        d="m 26.4 22.5 v -22.5 c -17.6 0 -26.4 7.8 -26.4 23.3 v 139.6 c 9.2 0 16.1 -1.6 20.6 -4.9 c 4.5 -3.3 6.8 -8.3 6.8 -15.3 v -82.4 c 0 -10.1 3.9 -18.6 11.6 -25.6 c 7.8 -7 17.5 -10.5 29.2 -10.5 c 9.6 0 17.4 1.6 23.3 4.7 c 1.9 -2.9 2.8 -6.3 2.8 -10.1 c 0 -5.2 -2 -9.7 -6 -13.4 c -4 -3.7 -9.7 -5.5 -17.3 -5.5 c -17.5 0 -32.5 7.6 -44.9 22.7 m 150.3 140.3 c 10.7 0 20.8 -1.8 30.2 -5.3 c 9.4 -3.6 17 -8.3 22.8 -14.2 c 5.8 -5.9 8.6 -12.2 8.6 -18.9 c 0 -5.4 -2.2 -9.6 -6.4 -12.4 c -4.3 -2.8 -9.6 -4 -15.9 -3.6 c 0 9.6 -3.4 17.3 -10.1 23 c -6.7 5.7 -16.5 8.5 -29.2 8.5 c -12.8 0 -22.6 -3.3 -29.4 -9.8 c -6.8 -6.5 -10.2 -15.1 -10.2 -25.8 v -14.2 h 91.8 c 3.6 0 6.6 -1.1 9.1 -3.5 c 2.5 -2.3 3.8 -5.1 3.8 -8.5 v -20.1 c 0 -11.1 -2.9 -21.1 -8.6 -29.9 c -5.8 -8.8 -13.6 -15.7 -23.6 -20.8 c -10 -5 -20.9 -7.5 -32.9 -7.5 c -12 0 -23 2.6 -33.2 7.7 C 133.1 12.8 125 19.9 119 28.9 C 113.1 38 110.1 48 110.1 59.1 v 46.5 c 0 10.9 2.8 20.7 8.5 29.4 c 5.7 8.7 13.5 15.5 23.6 20.4 c 10.1 4.9 21.5 7.4 34.3 7.4 m -39.6 -94 v -10.7 c 0 -10.5 3.6 -19 10.8 -25.6 c 7.2 -6.6 16.8 -9.9 28.8 -9.9 c 12 0 21.5 3.3 28.8 9.9 c 7.2 6.6 10.9 15.2 10.9 25.6 v 10.7 z m 203.8 94 c 12 0 22.6 -1.7 32.1 -5.2 c 9.4 -3.5 16.8 -8.3 22 -14.6 c 5.2 -6.3 7.9 -13.4 7.9 -21.4 c 0 -5.4 -2 -9.7 -6.1 -12.7 c -4.1 -3 -9.5 -4.4 -16.2 -3.9 c 0 9.9 -3.6 17.9 -10.8 24.2 c -7.2 6.3 -16.6 9.4 -28.1 9.4 c -11.5 0 -21 -3 -28.3 -9 c -7.3 -6 -11 -13.7 -11 -23.1 v -49.1 c 0 -9.9 3.6 -17.9 10.7 -24.1 c 7.1 -6.2 16.5 -9.3 28 -9.3 c 11.5 0 20.9 3.1 28.1 9.4 c 7.2 6.3 10.8 14.5 10.8 24.5 c 6.5 0.4 11.8 -1 15.9 -4.2 c 4.1 -3.2 6.1 -7.5 6.1 -12.7 c 0 -8 -2.6 -15.1 -7.9 -21.4 c -5.2 -6.3 -12.5 -11.2 -21.9 -14.6 c -9.3 -3.5 -20 -5.2 -31.9 -5.2 c -12.8 0 -24.1 2.4 -34 7.2 c -9.9 4.8 -17.6 11.5 -23.1 20.1 c -5.6 8.6 -8.3 18.5 -8.3 29.6 v 50.9 c 0 10.7 2.8 20.2 8.3 28.6 c 5.6 8.4 13.4 14.9 23.4 19.5 c 10.1 4.6 21.5 6.9 34.3 6.9 m 156.3 0 c 13 0 24.6 -2.4 34.9 -7.2 c 10.3 -4.8 18.3 -11.4 24.2 -19.7 c 5.9 -8.3 8.8 -17.6 8.8 -27.8 v -51.6 c 0 -10.5 -2.9 -20 -8.6 -28.6 c -5.8 -8.6 -13.8 -15.4 -24.2 -20.4 c -10.4 -5 -22.1 -7.5 -35.1 -7.5 c -13 0 -24.6 2.5 -34.9 7.5 C 451.7 12.6 443.7 19.4 437.9 28 c -5.8 8.6 -8.6 18.1 -8.6 28.6 v 51.6 c 0 10.3 2.9 19.6 8.6 27.8 c 5.8 8.3 13.8 14.8 24.2 19.7 c 10.4 4.8 22 7.2 34.8 7.2 m 0 -23.6 c -12.6 0 -22.6 -3 -30 -9 c -7.4 -6 -11.2 -13.8 -11.2 -23.4 v -49.4 c 0 -10.1 3.8 -18.2 11.3 -24.5 c 7.5 -6.3 17.5 -9.4 29.9 -9.4 c 12.6 0 22.6 3.1 30 9.4 c 7.4 6.3 11.2 14.5 11.2 24.5 v 49.4 c 0 9.6 -3.7 17.5 -11.2 23.4 c -7.4 6 -17.5 9 -30 9 m 130.5 -115.9 v -23.4 c -17.6 0 -26.4 7.8 -26.4 23.3 v 139.6 c 9.2 0 16.1 -1.6 20.6 -4.9 c 4.5 -3.3 6.8 -8.3 6.8 -15.3 v -82.4 c 0 -6.5 2 -12.5 6.1 -18.1 c 4.1 -5.6 9.5 -10 16.4 -13.2 c 6.8 -3.2 14.1 -4.9 21.9 -4.9 c 11.5 0 20.1 2.9 25.8 8.8 c 5.7 5.9 8.5 13.8 8.5 23.9 v 106 c 9.2 0 16.1 -1.6 20.6 -4.9 c 4.5 -3.3 6.8 -8.3 6.8 -15.3 v -88.7 c 0 -15.9 -4.9 -28.9 -14.8 -39 c -9.9 -10.1 -23.3 -15.1 -40.3 -15.1 c -11.7 0 -22.6 2.8 -32.7 8.3 c -7.6 4.2 -14 9.3 -19.5 15.3"
        fill="#221f20" stroke="none"/>
</svg>
